<svg width="29" height="29" viewBox="0 0 29 29" fill="none" xmlns="http://www.w3.org/2000/svg">
<path fill-rule="evenodd" clip-rule="evenodd" d="M18.2512 0.500155C21.9907 1.50213 25.1162 3.90046 27.0518 7.25313C28.9875 10.6059 29.5019 14.5117 28.4999 18.2513C27.4979 21.9909 25.0996 25.1163 21.7469 27.052C19.5137 28.3413 17.035 29 14.5236 29C13.2645 29 11.9974 28.8345 10.7487 28.4999C7.00922 27.4979 3.88368 25.0996 1.94804 21.7469C0.012347 18.3942 -0.501893 14.4883 0.500079 10.7488C1.50205 7.0093 3.90027 3.88387 7.25306 1.94812C10.6059 0.0123093 14.5117 -0.501931 18.2512 0.500155ZM20.992 25.7449C23.9957 24.0108 26.1442 21.2107 27.0418 17.8607C27.9395 14.5106 27.4788 11.0114 25.7446 8.00781C24.0105 5.00416 21.2105 2.85567 17.8604 1.95803C16.7422 1.65834 15.6066 1.51006 14.4789 1.51006C12.2288 1.51006 10.0086 2.10008 8.00774 3.25527C5.00414 4.98949 2.85565 7.78941 1.95795 11.1395C1.06026 14.4896 1.52091 17.9888 3.25502 20.9923C4.98919 23.996 7.78916 26.1445 11.1393 27.0421C14.4894 27.9396 17.9885 27.479 20.992 25.7449Z" fill="white"/>
</svg>
