<svg width="14" height="15" viewBox="0 0 14 15" fill="none" xmlns="http://www.w3.org/2000/svg">
<path fill-rule="evenodd" clip-rule="evenodd" d="M3.13539 0.75195L12.4542 6.13224C12.9487 6.41771 13.2439 6.92906 13.2439 7.5C13.2439 8.071 12.9488 8.58235 12.4543 8.86793L3.13533 14.2482C2.8881 14.3908 2.61685 14.4623 2.34554 14.4623C2.07429 14.4623 1.80315 14.391 1.55591 14.2482C1.06132 13.9627 0.766113 13.4513 0.766113 12.8804V2.11976C0.766113 1.54877 1.06138 1.03736 1.55591 0.751894C2.05044 0.466538 2.64086 0.466425 3.13539 0.75195ZM2.38054 12.9411L11.6995 7.56083L11.6995 7.56081C11.7108 7.55422 11.7345 7.5405 11.7345 7.50011C11.7345 7.45967 11.7109 7.44602 11.6995 7.43945L2.38065 2.05916L2.3806 2.05913C2.37363 2.05511 2.36221 2.04851 2.34639 2.04851C2.33619 2.04851 2.32424 2.05123 2.31053 2.05916C2.27553 2.07938 2.27553 2.10668 2.27553 2.11982V12.8804C2.27553 12.8935 2.27553 12.9208 2.31053 12.9411C2.34542 12.9613 2.36916 12.9477 2.38054 12.9411Z" fill="white"/>
</svg>
